<?xml version="1.0" standalone="no"?>
<!DOCTYPE svg PUBLIC "-//W3C//DTD SVG 20010904//EN"
 "http://www.w3.org/TR/2001/REC-SVG-20010904/DTD/svg10.dtd">
<svg version="1.0" xmlns="http://www.w3.org/2000/svg"
 width="500.000000pt" height="500.000000pt" viewBox="0 0 500.000000 500.000000"
 preserveAspectRatio="xMidYMid meet">
<metadata>
Created by potrace 1.16, written by Peter Selinger 2001-2019
</metadata>
<g transform="translate(0.000000,500.000000) scale(0.100000,-0.100000)"
fill="#000000" stroke="none">
<path d="M2511 4530 c-30 -11 -73 -32 -96 -47 -64 -42 -615 -541 -627 -569 -8
-18 -7 -28 4 -46 9 -13 151 -133 316 -268 l301 -245 0 -170 1 -170 -69 -87
c-38 -48 -97 -130 -131 -182 l-61 -94 -278 140 -277 141 44 66 c95 141 142
283 142 432 0 153 -51 271 -162 375 -185 174 -485 181 -647 15 -102 -105 -146
-281 -107 -429 40 -150 210 -323 460 -467 l49 -29 -54 -48 c-30 -27 -141 -116
-247 -199 -229 -179 -296 -239 -361 -327 -46 -61 -91 -166 -91 -211 0 -13 -15
-24 -48 -36 -67 -26 -171 -133 -195 -201 -63 -179 -64 -977 -3 -1152 36 -102
142 -198 244 -221 89 -20 466 -31 1082 -31 658 0 1013 11 1096 35 75 21 143
72 190 141 47 70 58 117 76 310 l12 134 201 0 c253 0 439 13 663 45 270 40
590 114 675 156 l37 19 0 130 c0 486 -223 1085 -559 1500 l-61 75 0 167 0 168
76 62 c43 35 181 149 308 253 l231 191 0 40 c0 40 -4 44 -155 180 -320 288
-328 294 -359 294 -33 0 -71 -39 -71 -72 0 -23 -3 -20 233 -231 l187 -168
-222 -183 -223 -184 -5 144 c-4 128 -7 145 -25 158 -27 21 -55 19 -85 -4 l-25
-19 -3 -384 -3 -385 -75 -11 c-200 -30 -288 -35 -594 -35 -307 0 -394 5 -595
35 l-75 11 0 380 0 379 -25 24 c-29 30 -54 31 -88 4 -26 -20 -27 -23 -29 -158
l-3 -138 -215 178 c-118 97 -216 181 -217 186 -4 11 460 431 517 469 38 25
148 57 181 52 18 -2 27 -24 59 -136 21 -73 51 -168 66 -210 43 -121 138 -311
193 -384 57 -76 144 -149 200 -168 33 -11 43 -9 84 10 173 82 339 374 451 800
26 98 30 100 127 76 79 -21 112 -20 132 2 22 24 22 75 0 95 -38 33 -118 49
-225 45 -89 -3 -112 -8 -168 -34 -36 -17 -96 -58 -135 -92 -88 -78 -143 -105
-222 -110 -78 -5 -150 25 -237 101 -83 72 -112 91 -179 116 -78 28 -228 29
-306 1z m538 -322 c61 -30 73 -32 171 -32 96 0 110 3 170 31 36 16 93 55 128
87 34 31 64 56 67 56 2 0 -1 -12 -6 -27 -5 -16 -27 -84 -50 -153 -22 -69 -68
-181 -101 -250 -50 -102 -74 -137 -128 -192 -36 -38 -71 -68 -78 -68 -21 0
-102 81 -145 144 -21 32 -57 97 -79 143 -39 86 -119 309 -133 372 l-7 35 63
-57 c34 -32 92 -72 128 -89z m-1607 -446 c121 -60 189 -165 196 -307 7 -134
-42 -280 -134 -406 l-36 -49 -36 21 c-212 126 -367 259 -412 354 -32 66 -37
149 -15 230 21 78 66 133 138 170 47 24 61 26 142 23 78 -3 99 -7 157 -36z
m1168 -871 c207 -28 336 -36 610 -36 274 0 403 8 610 36 41 6 82 12 92 15 11
3 35 -20 81 -78 243 -313 420 -719 482 -1105 14 -85 36 -315 32 -320 -1 -1
-38 -11 -82 -23 -44 -11 -87 -23 -96 -26 -13 -3 -17 15 -28 118 -17 174 -49
392 -64 435 -16 51 -55 70 -96 49 -16 -9 -32 -25 -36 -35 -3 -11 5 -89 19
-173 27 -169 52 -415 42 -425 -5 -6 -140 -34 -142 -30 0 1 -8 103 -17 227 -17
231 -60 524 -80 549 -30 36 -101 28 -117 -13 -5 -14 1 -82 16 -182 42 -282 67
-604 47 -604 -5 0 -60 -7 -124 -15 -158 -19 -529 -38 -610 -30 l-66 7 -6 171
c-7 176 -29 397 -46 454 -26 89 -146 209 -228 228 -23 5 -35 20 -66 86 -29 62
-55 97 -115 157 -75 74 -193 164 -300 227 l-51 30 67 101 c97 146 162 225 181
220 9 -3 50 -9 91 -15z m-822 -212 c152 -77 280 -144 284 -147 4 -4 -12 -47
-36 -97 -39 -81 -58 -127 -108 -260 l-16 -40 -327 -7 c-321 -6 -327 -7 -351
-29 -31 -29 -30 -63 2 -96 l26 -26 211 6 c219 5 931 -8 1165 -21 124 -8 135
-10 175 -38 88 -61 124 -220 105 -464 -10 -124 -28 -180 -74 -226 -51 -50
-107 -62 -351 -69 l-213 -7 0 137 c0 77 -5 155 -12 177 -15 50 -78 122 -132
151 -40 22 -49 22 -401 22 -353 0 -361 0 -401 -22 -23 -12 -58 -41 -77 -64
-55 -64 -67 -112 -67 -267 l0 -135 -247 7 c-137 4 -265 12 -287 17 -56 15
-109 54 -134 98 -29 52 -52 254 -41 366 18 188 34 228 107 280 l44 30 196 8
c127 5 208 13 228 22 42 18 53 59 26 94 -19 26 -20 26 -171 26 -96 0 -151 3
-151 10 0 5 11 34 25 64 37 78 143 182 360 351 105 81 226 180 270 219 44 39
83 71 88 71 4 0 132 -63 285 -141z m562 -308 c95 -63 228 -188 255 -240 l17
-34 -29 6 c-16 3 -143 9 -281 13 -139 4 -252 10 -252 14 0 13 51 135 97 232
l46 97 31 -16 c17 -9 69 -41 116 -72z m-273 -877 c58 -23 66 -55 66 -264 0
-205 -7 -236 -63 -265 -42 -22 -647 -22 -689 0 -55 28 -63 65 -59 278 4 261 3
259 208 268 198 8 499 -1 537 -17z m-1427 -453 c36 -5 159 -13 275 -16 278 -8
266 -5 288 -59 25 -61 92 -121 159 -141 43 -13 108 -16 356 -16 354 0 391 5
458 64 43 38 84 101 84 130 0 10 53 15 248 24 136 7 263 16 282 22 20 6 57 24
83 41 l47 30 0 -33 c0 -64 -21 -263 -31 -304 -15 -54 -68 -116 -117 -136 -93
-37 -1264 -55 -1852 -28 -239 11 -280 15 -318 33 -57 27 -99 80 -111 142 -12
57 -31 240 -31 292 l0 33 58 -34 c37 -22 79 -37 122 -44z"/>
<path d="M1439 1401 l-29 -29 0 -141 c0 -133 1 -141 24 -168 l24 -28 275 0
275 0 26 24 c26 24 26 27 26 169 l0 144 -29 29 -29 29 -267 0 -267 0 -29 -29z
m481 -171 l0 -60 -185 0 -185 0 0 60 0 60 185 0 185 0 0 -60z"/>
</g>
</svg>
