<?xml version="1.0" standalone="no"?>
<!DOCTYPE svg PUBLIC "-//W3C//DTD SVG 20010904//EN"
 "http://www.w3.org/TR/2001/REC-SVG-20010904/DTD/svg10.dtd">
<svg version="1.0" xmlns="http://www.w3.org/2000/svg"
 width="500.000000pt" height="500.000000pt" viewBox="0 0 500.000000 500.000000"
 preserveAspectRatio="xMidYMid meet">

<g transform="translate(0.000000,500.000000) scale(0.100000,-0.100000)"
fill="#000000" stroke="none">
<path d="M1518 4689 c-43 -16 -48 -50 -48 -325 l0 -254 -559 0 c-535 0 -560
-1 -582 -19 l-24 -19 0 -1851 0 -1850 23 -23 23 -23 1057 -3 c748 -2 1068 0
1095 8 26 8 41 19 48 36 12 33 12 4255 -1 4288 -5 13 -22 28 -41 35 -41 14
-951 14 -991 0z m902 -279 l0 -150 -405 0 -405 0 0 150 0 150 405 0 405 0 0
-150z m0 -405 l0 -115 -405 0 -405 0 0 115 0 115 405 0 405 0 0 -115z m-950
-140 l0 -115 -515 0 -515 0 0 108 c0 60 3 112 7 115 3 4 235 7 515 7 l508 0 0
-115z m950 -1390 l0 -1285 -405 0 -405 0 0 1278 c0 703 3 1282 7 1285 3 4 186
7 405 7 l398 0 0 -1285z m-950 35 l0 -1100 -515 0 -515 0 0 1100 0 1100 515 0
515 0 0 -1100z m0 -1355 l0 -115 -512 2 -513 3 -3 113 -3 112 516 0 515 0 0
-115z m950 -175 l0 -80 -405 0 -405 0 0 73 c0 41 3 77 7 80 3 4 186 7 405 7
l398 0 0 -80z m-950 -295 l0 -225 -515 0 -515 0 0 225 0 225 515 0 515 0 0
-225z m950 -75 l0 -150 -405 0 -405 0 0 150 0 150 405 0 405 0 0 -150z"/>
<path d="M620 3360 c-19 -19 -20 -33 -20 -339 0 -345 0 -343 53 -356 12 -3
158 -5 324 -3 275 3 304 5 320 21 17 16 18 44 18 336 0 300 -1 320 -19 340
-19 21 -26 21 -338 21 -305 0 -319 -1 -338 -20z m558 -337 l2 -223 -225 0
-225 0 0 218 c0 120 3 222 7 226 4 3 104 5 222 4 l216 -3 3 -222z"/>
<path d="M3605 4080 c-55 -15 -206 -56 -335 -90 -712 -189 -700 -185 -700
-234 0 -46 879 -3388 896 -3407 23 -25 57 -24 162 5 48 13 193 52 322 86 129
34 264 70 300 80 36 10 137 37 225 60 88 24 168 49 178 58 9 8 17 28 17 44 0
22 -394 1552 -609 2363 -16 61 -43 164 -60 230 -17 66 -45 172 -61 235 -17 63
-42 160 -56 215 -96 368 -103 386 -153 384 -14 0 -71 -13 -126 -29z m117 -266
c20 -76 37 -146 37 -155 1 -12 -82 -37 -386 -119 -552 -147 -566 -150 -570
-146 -10 10 -82 301 -75 307 9 7 59 21 522 144 201 53 376 100 390 105 14 5
29 7 35 6 5 -2 27 -65 47 -142z m92 -358 c9 -30 16 -61 16 -69 0 -17 2 -16
-295 -95 -191 -51 -227 -61 -497 -133 -81 -21 -151 -39 -157 -39 -10 0 -23 40
-37 107 -6 30 -5 32 37 43 24 6 94 24 154 41 61 16 236 63 390 104 154 41 294
79 310 84 57 18 63 14 79 -43z m70 -268 c36 -129 406 -1558 406 -1570 0 -10
-38 -24 -117 -45 -65 -17 -239 -63 -388 -103 -334 -89 -449 -119 -452 -117 -3
3 -423 1616 -423 1624 0 5 46 20 103 35 94 26 315 85 597 160 63 17 144 38
180 48 36 10 68 19 72 19 4 1 13 -23 22 -51z m487 -1865 l37 -143 -51 -14
c-63 -18 -197 -54 -507 -136 -129 -34 -272 -72 -318 -85 -45 -12 -84 -19 -87
-15 -10 16 -76 282 -71 287 4 5 78 25 351 97 162 43 439 118 505 136 105 29
99 35 141 -127z m112 -429 c21 -77 37 -146 37 -151 0 -6 -17 -15 -37 -21 -21
-5 -150 -40 -288 -76 -538 -144 -627 -167 -632 -163 -11 11 -82 302 -75 308 4
3 207 59 452 123 245 65 456 121 470 125 14 5 28 6 31 2 3 -3 22 -69 42 -147z"/>
</g>
</svg>
