<?xml version="1.0" standalone="no"?>
<!DOCTYPE svg PUBLIC "-//W3C//DTD SVG 20010904//EN"
 "http://www.w3.org/TR/2001/REC-SVG-20010904/DTD/svg10.dtd">
<svg version="1.0" xmlns="http://www.w3.org/2000/svg"
 width="500.000000pt" height="500.000000pt" viewBox="0 0 500.000000 500.000000"
 preserveAspectRatio="xMidYMid meet">

<g transform="translate(0.000000,500.000000) scale(0.100000,-0.100000)"
fill="#000000" stroke="none">
<path d="M2285 4831 c-86 -39 -105 -87 -105 -261 0 -126 1 -132 25 -155 13
-14 31 -25 40 -25 13 0 15 -26 15 -200 0 -109 -5 -223 -11 -252 -17 -80 -61
-164 -140 -262 -93 -118 -134 -203 -154 -318 -3 -21 -10 -38 -15 -38 -6 0 -10
4 -10 9 0 22 -173 367 -216 433 -120 180 -316 320 -531 379 -208 57 -304 6
-390 -205 -17 -44 -40 -119 -49 -167 l-18 -87 -65 -16 c-116 -29 -197 -109
-227 -226 -19 -75 -13 -134 22 -207 35 -73 75 -104 290 -228 l192 -109 56
-113 c31 -62 56 -115 56 -118 0 -3 -89 -5 -198 -5 -224 0 -273 -9 -344 -63
-108 -82 -147 -215 -103 -348 23 -69 112 -161 173 -180 l41 -12 3 -791 3 -791
23 -58 c32 -77 88 -145 153 -184 112 -67 16 -63 1689 -63 1235 0 1526 3 1572
14 122 28 222 116 270 233 l23 58 3 791 3 791 41 12 c60 19 150 111 172 179
63 188 -55 383 -246 408 l-48 7 0 321 0 321 -75 190 -75 190 0 157 c0 170 -7
200 -49 218 -18 7 -178 10 -515 8 l-488 -3 -19 -24 c-17 -21 -19 -41 -19 -192
0 -102 -4 -169 -10 -169 -14 0 -87 99 -106 145 -38 90 -44 137 -44 351 l0 212
30 12 c17 7 33 23 36 35 3 12 4 87 2 166 -3 166 -14 191 -91 228 -40 20 -60
21 -288 21 -215 0 -249 -3 -284 -19z m523 -213 l3 -78 -241 0 -240 0 0 73 c0
41 3 77 7 81 4 3 110 5 237 4 l231 -3 3 -77z m-76 -460 c4 -206 7 -241 27
-303 29 -91 75 -172 149 -266 l60 -76 -36 -89 -37 -89 -5 -335 -5 -335 -82 -3
-83 -3 0 209 c0 192 -2 212 -19 233 l-19 24 -294 5 -293 5 1 111 c2 151 17
190 121 328 164 214 183 275 190 589 l5 227 158 0 158 0 4 -232z m-1598 -154
c184 -47 384 -192 474 -342 48 -81 290 -597 281 -600 -10 -4 -339 188 -339
198 0 4 7 13 15 20 21 17 19 73 -2 92 -33 28 -53 28 -118 2 l-65 -26 -77 45
c-42 24 -78 48 -79 53 -2 5 46 32 106 61 98 47 109 54 115 83 5 24 2 39 -12
59 -33 44 -64 39 -221 -39 -79 -38 -148 -70 -154 -70 -5 0 -50 23 -99 52 -74
43 -89 56 -89 77 0 82 87 304 131 334 29 21 55 21 133 1z m2846 -164 l0 -80
-395 0 -395 0 0 80 0 80 395 0 395 0 0 -80z m-41 -242 c0 -7 -22 -62 -48 -123
l-47 -110 -379 -3 c-208 -1 -382 1 -387 6 -4 4 13 61 39 125 l48 117 388 0
c303 0 387 -3 386 -12z m-3094 -109 c39 -22 142 -82 230 -132 88 -50 293 -168
455 -262 162 -94 358 -207 435 -251 465 -267 639 -371 658 -398 13 -19 22 -50
25 -85 3 -46 0 -62 -20 -90 -39 -58 -72 -76 -136 -76 -54 1 -66 6 -207 90 -82
48 -265 154 -405 235 -246 141 -539 310 -1010 582 -124 72 -236 140 -248 152
-87 78 -60 222 48 265 53 21 102 13 175 -30z m3256 -122 l39 -98 -2 -302 -3
-302 -82 -3 -83 -3 0 308 0 308 37 98 c21 53 42 96 47 94 5 -2 26 -47 47 -100z
m-281 -427 l0 -280 -395 0 -395 0 0 280 0 280 395 0 395 0 0 -280z m-1250
-116 c0 -135 -2 -155 -15 -150 -9 3 -100 55 -204 116 -103 60 -196 112 -205
116 -14 6 -46 52 -46 69 0 3 106 5 235 5 l235 0 0 -156z m-1278 -133 c41 -23
34 -31 -25 -31 -53 0 -53 0 -75 45 -12 25 -22 48 -22 51 0 3 21 -7 48 -22 26
-15 59 -35 74 -43z m544 -314 c304 -176 294 -170 294 -179 0 -4 -331 -8 -737
-8 l-736 0 -41 24 c-110 64 -113 201 -6 274 l33 22 482 0 481 0 230 -133z
m2534 111 c47 -32 71 -68 77 -116 8 -59 -26 -125 -81 -157 l-43 -25 -783 0
-782 0 7 23 c21 67 35 124 35 142 0 21 -22 107 -35 138 -7 16 34 17 782 17
l790 0 33 -22z m-3275 -515 c0 -91 23 -145 79 -188 75 -57 28 -55 1316 -55
1271 0 1238 -1 1309 49 17 12 43 43 58 69 24 41 28 58 28 125 l-1 77 163 0
163 0 0 -766 c0 -546 -3 -778 -11 -805 -17 -55 -65 -108 -123 -135 l-51 -24
-1535 0 -1535 0 -51 24 c-58 27 -106 80 -123 135 -8 27 -11 259 -11 805 l0
766 163 0 163 0 -1 -77z m2626 48 c29 -36 25 -94 -7 -120 -27 -21 -28 -21
-1224 -21 -1196 0 -1197 0 -1224 21 -43 34 -33 119 17 139 13 5 542 8 1220 7
l1199 -2 19 -24z"/>
<path d="M1265 1561 c-136 -34 -211 -182 -156 -307 29 -64 55 -92 116 -120
l50 -24 1215 0 1215 0 50 24 c61 28 87 56 116 120 46 106 0 232 -106 289 l-40
22 -1215 2 c-668 0 -1228 -2 -1245 -6z m2449 -162 c33 -26 37 -88 6 -119 -20
-20 -33 -20 -1230 -20 -1197 0 -1210 0 -1230 20 -31 31 -27 93 6 119 27 21 28
21 1224 21 1196 0 1197 0 1224 -21z"/>
<path d="M1240 927 c-53 -17 -123 -93 -139 -150 -35 -124 31 -246 155 -283 70
-21 2398 -21 2468 0 92 28 149 95 163 191 8 63 -13 127 -58 179 -72 81 21 76
-1343 75 -857 -1 -1221 -4 -1246 -12z m2481 -156 c29 -36 25 -94 -7 -120 -27
-21 -28 -21 -1224 -21 -1196 0 -1197 0 -1224 21 -43 34 -33 119 17 139 13 5
542 8 1220 7 l1199 -2 19 -24z"/>
</g>
</svg>
