<?xml version="1.0" standalone="no"?>
<!DOCTYPE svg PUBLIC "-//W3C//DTD SVG 20010904//EN"
 "http://www.w3.org/TR/2001/REC-SVG-20010904/DTD/svg10.dtd">
<svg version="1.0" xmlns="http://www.w3.org/2000/svg"
 width="500.000000pt" height="500.000000pt" viewBox="0 0 500.000000 500.000000"
 preserveAspectRatio="xMidYMid meet">

<g transform="translate(0.000000,500.000000) scale(0.100000,-0.100000)"
fill="#000000" stroke="none">
<path d="M2413 4495 c-298 -94 -549 -178 -558 -185 -13 -11 -15 -78 -15 -546
0 -294 -2 -534 -5 -534 -3 0 -23 9 -43 19 -118 60 -290 41 -391 -45 -97 -81
-93 -241 7 -324 117 -96 328 -96 445 1 74 61 71 42 77 548 l5 453 465 149
c256 81 475 150 488 154 l22 5 0 -310 c0 -170 -2 -310 -4 -310 -2 0 -30 12
-62 27 -49 23 -73 27 -144 27 -72 0 -94 -4 -145 -28 -108 -49 -155 -114 -155
-214 0 -135 125 -232 300 -232 126 0 237 57 279 142 21 44 21 48 19 703 -3
651 -3 658 -23 665 -14 5 -186 -45 -562 -165z m497 -73 l0 -128 -479 -152
c-263 -84 -484 -152 -490 -152 -8 0 -11 37 -9 126 l3 127 480 153 c264 84 483
153 488 153 4 1 7 -57 7 -127z m-135 -903 c51 -14 100 -51 121 -91 37 -71 -29
-154 -142 -179 -147 -33 -302 78 -250 179 42 81 161 121 271 91z m-1024 -360
c47 -26 89 -80 89 -114 0 -35 -42 -88 -90 -115 -37 -21 -58 -25 -120 -25 -78
0 -121 15 -167 58 -75 68 -35 169 83 213 56 21 151 13 205 -17z"/>
<path d="M3629 4400 c-73 -15 -129 -85 -129 -161 l0 -35 -45 2 -45 2 0 -44 0
-43 43 -3 42 -3 3 -52 3 -53 -45 0 -46 0 0 -45 c0 -37 3 -44 18 -43 53 4 68
-2 80 -36 7 -18 21 -41 32 -51 19 -18 20 -32 20 -462 l0 -443 -55 0 c-72 0
-173 -40 -223 -90 -22 -20 -52 -63 -67 -95 -27 -55 -29 -65 -36 -259 -7 -220
-21 -279 -87 -384 -45 -70 -97 -179 -118 -247 -15 -47 -19 -89 -19 -190 1
-114 4 -139 27 -206 87 -249 289 -423 542 -468 78 -14 360 -14 428 0 150 31
260 90 367 199 126 127 178 235 202 419 20 153 -19 306 -120 470 -83 137 -102
212 -108 426 -4 166 -6 184 -30 237 -31 69 -100 138 -164 162 -25 9 -76 20
-115 24 l-69 7 -3 439 -2 440 24 25 c14 14 28 38 31 54 4 15 12 27 19 28 6 0
26 1 45 2 26 2 35 7 37 22 4 24 -6 65 -15 63 -3 0 -21 0 -38 1 l-33 1 0 55 0
55 40 0 c22 0 40 3 41 8 8 60 5 67 -38 76 -41 8 -43 11 -43 43 0 50 -28 101
-70 129 -33 22 -49 25 -147 27 -60 1 -121 0 -134 -3z m240 -104 c22 -23 23
-31 23 -201 0 -227 6 -219 -153 -220 -110 0 -111 0 -136 29 -25 29 -25 29 -21
208 4 220 -5 208 153 208 105 0 113 -1 134 -24z m-41 -1117 l2 -606 -42 8
c-24 4 -64 5 -90 2 l-48 -6 0 607 0 607 88 -3 87 -3 3 -606z m-268 -489 l0
-157 -44 -66 c-33 -49 -45 -78 -50 -121 -14 -108 41 -221 134 -275 39 -22 56
-26 135 -26 99 0 133 12 193 69 60 56 77 100 77 201 0 79 -3 95 -26 135 -15
25 -36 54 -48 64 -20 18 -21 29 -21 177 l0 157 62 -4 c65 -5 134 -33 167 -68
10 -12 29 -41 42 -66 21 -39 24 -63 30 -230 9 -241 21 -289 119 -455 85 -146
105 -213 104 -355 -1 -114 -16 -195 -46 -250 -84 -152 -138 -211 -249 -273
-129 -72 -169 -80 -399 -80 -194 -1 -209 1 -277 25 -143 50 -244 126 -323 244
-54 81 -95 198 -103 294 -12 131 28 278 108 400 91 139 123 264 125 485 0 77
6 156 12 175 31 97 122 156 241 157 l37 0 0 -157z m287 -227 c59 -47 78 -87
77 -161 -1 -50 -7 -69 -28 -96 -47 -63 -83 -81 -158 -81 -59 0 -70 3 -104 31
-68 55 -79 77 -79 159 0 67 3 77 30 111 47 57 89 76 162 72 52 -3 69 -9 100
-35z"/>
<path d="M3442 1678 c-17 -17 -17 -239 0 -256 9 -9 88 -12 295 -12 337 0 311
-13 308 151 -1 58 -5 111 -9 117 -10 17 -577 17 -594 0z m518 -128 l0 -60
-220 0 -220 0 -1 25 c0 14 -1 39 -1 55 0 17 1 32 1 35 1 3 100 5 221 5 l220 0
0 -60z"/>
<path d="M2230 2616 c-168 -41 -613 -146 -990 -235 -377 -89 -703 -169 -724
-179 -49 -21 -76 -64 -76 -122 0 -25 19 -115 42 -200 l42 -155 6 -600 c5 -595
5 -600 27 -641 25 -47 71 -89 123 -113 31 -14 134 -16 965 -16 924 0 930 0
975 21 57 26 98 67 121 120 18 39 19 80 19 664 0 453 -3 626 -11 636 -10 12
-152 14 -871 14 -774 0 -935 5 -811 23 21 3 128 26 238 52 110 25 229 52 265
60 36 8 135 30 220 50 85 20 315 72 510 116 472 106 460 102 460 138 0 16 -20
105 -45 198 -41 153 -48 171 -80 201 -19 17 -43 32 -54 32 -11 0 -25 2 -33 4
-7 3 -150 -28 -318 -68z m345 -36 c16 -18 83 -241 85 -281 0 -12 -25 -21 -101
-38 l-102 -23 -133 133 c-74 74 -134 136 -134 139 0 5 327 86 356 89 6 1 19
-8 29 -19z m-360 -229 c74 -74 134 -135 133 -137 -2 -1 -86 -21 -187 -44
l-185 -42 -128 130 c-70 72 -128 134 -128 139 0 7 334 92 352 89 4 0 68 -61
143 -135z m-470 -111 c71 -71 127 -131 125 -133 -3 -3 -86 -23 -185 -46 l-180
-40 -132 131 c-73 73 -131 134 -128 136 7 7 319 81 345 81 19 1 55 -29 155
-129z m-480 -110 c71 -71 127 -131 125 -133 -3 -2 -86 -23 -185 -45 l-180 -41
-127 127 c-71 70 -128 130 -128 133 0 7 310 86 345 88 13 1 64 -43 150 -129z
m-470 -110 c86 -86 124 -131 114 -134 -8 -3 -83 -20 -166 -39 l-153 -34 -9 36
c-56 212 -60 236 -46 257 12 18 68 39 115 43 8 0 73 -57 145 -129z m93 -307
c-2 -5 -36 -72 -76 -150 l-72 -143 -60 0 -60 0 0 150 0 150 136 0 c75 0 134
-3 132 -7z m417 -143 l-75 -150 -190 0 c-105 0 -190 2 -190 5 0 3 33 70 72
150 l73 145 192 0 193 0 -75 -150z m555 140 c0 -6 -32 -73 -70 -150 l-71 -140
-194 0 -195 0 75 150 75 150 190 0 c121 0 190 -4 190 -10z m490 5 c0 -3 -33
-70 -72 -150 l-73 -145 -193 0 c-107 0 -192 3 -190 8 2 4 36 71 76 150 l72
142 190 0 c105 0 190 -2 190 -5z m330 -145 l0 -150 -185 0 c-102 0 -185 2
-185 5 0 3 33 70 72 150 l73 145 112 0 113 0 0 -150z m-2 -627 c-3 -443 -2
-437 -88 -481 l-45 -22 -912 2 c-907 3 -912 3 -940 24 -15 11 -38 36 -50 54
-23 33 -23 35 -23 421 l0 389 1030 0 1031 0 -3 -387z"/>
</g>
</svg>
