<?xml version="1.0" standalone="no"?>
<!DOCTYPE svg PUBLIC "-//W3C//DTD SVG 20010904//EN"
 "http://www.w3.org/TR/2001/REC-SVG-20010904/DTD/svg10.dtd">
<svg version="1.0" xmlns="http://www.w3.org/2000/svg"
 width="500.000000pt" height="500.000000pt" viewBox="0 0 500.000000 500.000000"
 preserveAspectRatio="xMidYMid meet">
<metadata>
Created by potrace 1.16, written by Peter Selinger 2001-2019
</metadata>
<g transform="translate(0.000000,500.000000) scale(0.100000,-0.100000)"
fill="#000000" stroke="none">
<path d="M710 4461 c-193 -62 -337 -208 -396 -400 -12 -36 -14 -242 -14 -1125
l0 -1081 24 -67 c46 -130 120 -226 229 -297 63 -41 191 -91 232 -91 28 0 65
40 65 69 0 41 -19 59 -87 81 -98 32 -140 56 -200 116 -82 82 -133 212 -133
342 l0 32 2060 0 2060 0 0 -27 c-2 -254 -159 -443 -393 -473 -42 -5 -707 -10
-1588 -10 l-1516 0 -21 -23 c-29 -31 -28 -63 4 -92 l27 -25 388 0 c214 0 389
-4 389 -9 0 -25 -21 -272 -26 -302 -5 -35 -8 -37 -52 -44 -63 -9 -156 -60
-189 -103 -40 -53 -72 -140 -73 -197 0 -59 28 -111 79 -150 l35 -25 875 0 875
0 36 25 c57 39 83 95 78 163 -11 148 -118 266 -260 287 -44 7 -47 9 -52 44 -5
30 -26 276 -26 302 0 4 242 10 538 11 l537 4 78 28 c155 56 290 184 354 336
l28 65 3 1090 c2 732 -1 1104 -8 1132 -41 168 -177 321 -348 394 -71 31 -87
33 -205 37 -145 5 -167 -4 -167 -63 0 -56 26 -69 154 -76 85 -4 124 -11 166
-29 119 -50 206 -142 252 -265 l23 -60 3 -902 3 -903 -105 0 -105 0 -3 873 -3
872 -23 43 c-31 58 -88 114 -148 143 l-49 24 -1625 0 -1625 0 -45 -22 c-68
-34 -112 -75 -145 -134 l-30 -54 -3 -872 -3 -873 -105 0 -105 0 3 903 3 902
23 60 c46 124 130 213 252 266 l55 24 1490 5 c820 3 1495 8 1501 12 6 4 17 21
24 38 11 28 11 34 -7 58 l-20 27 -1494 2 c-1409 2 -1497 1 -1549 -16z m1880
-1376 l0 -905 -905 0 -905 0 0 848 c0 805 1 849 19 882 10 19 33 45 51 58 l33
22 853 0 854 0 0 -905z m1537 885 c18 -10 41 -37 53 -59 20 -40 20 -54 20
-886 l0 -845 -735 0 -735 0 0 905 0 905 683 0 c659 0 683 -1 714 -20z m-1116
-2755 l14 -175 -535 0 -535 0 14 175 14 175 507 0 507 0 14 -175z m261 -350
c28 -19 41 -38 54 -79 30 -95 115 -86 -836 -86 -951 0 -866 -9 -836 86 13 41
26 60 54 79 l37 25 745 0 745 0 37 -25z"/>
<path d="M1225 3778 c-35 -19 -45 -41 -45 -100 0 -49 4 -63 25 -83 30 -30 54
-31 89 -4 23 18 26 27 26 88 0 52 -4 71 -17 83 -26 23 -55 29 -78 16z"/>
<path d="M2130 3783 c-40 -15 -50 -35 -50 -104 0 -61 3 -70 26 -88 35 -27 59
-26 89 4 21 20 25 34 25 83 0 43 -5 66 -17 80 -20 23 -50 33 -73 25z"/>
<path d="M1535 3685 c-33 -32 -31 -57 5 -99 43 -49 91 -68 166 -68 49 0 73 6
102 24 84 52 106 108 56 147 -32 25 -67 27 -85 4 -8 -9 -29 -22 -46 -30 -28
-11 -38 -11 -65 0 -18 8 -39 21 -47 30 -20 24 -58 21 -86 -8z"/>
<path d="M1105 3225 c-31 -30 -32 -65 -2 -93 l23 -22 577 0 c564 0 577 0 597
20 27 27 25 66 -5 95 l-24 25 -571 0 -571 0 -24 -25z"/>
<path d="M1106 2879 c-33 -26 -34 -68 -3 -97 l23 -22 575 0 576 0 21 23 c30
32 28 71 -4 96 -26 21 -35 21 -594 21 -559 0 -568 0 -594 -21z"/>
<path d="M1904 2681 c-51 -13 -97 -46 -124 -90 l-25 -40 -316 -1 -316 0 -21
-23 c-28 -29 -28 -57 -1 -91 l20 -26 317 0 317 -1 20 -31 c11 -18 39 -47 63
-65 38 -29 51 -33 103 -33 84 0 151 37 185 103 14 25 18 27 83 27 58 0 71 3
89 23 28 30 28 68 -1 95 -19 18 -35 22 -90 22 -62 0 -67 2 -81 28 -39 74 -143
123 -222 103z"/>
<path d="M3403 3785 c-29 -8 -70 -25 -90 -38 -49 -30 -126 -76 -286 -167 -70
-40 -139 -86 -152 -102 l-25 -30 0 -329 c0 -272 3 -335 15 -359 15 -29 36 -43
347 -223 174 -101 202 -111 275 -104 47 5 84 23 242 113 102 59 209 120 236
135 28 15 64 42 80 59 l30 31 0 339 c0 324 -1 340 -20 366 -11 14 -97 71 -190
125 -269 156 -310 178 -357 188 -51 12 -41 13 -105 -4z m177 -183 c322 -184
322 -184 309 -197 -13 -12 -320 -191 -382 -223 -16 -8 -41 -12 -57 -8 -26 5
-435 235 -428 241 2 1 53 31 113 65 61 35 142 81 180 103 109 63 118 67 150
67 18 0 65 -20 115 -48z m-394 -449 c94 -55 178 -102 187 -106 15 -6 17 -30
17 -227 0 -122 -3 -219 -7 -217 -150 87 -354 203 -370 211 -23 11 -23 13 -23
235 0 178 3 221 13 213 6 -5 89 -55 183 -109z m744 -110 l0 -218 -195 -112
c-107 -62 -197 -113 -200 -113 -3 0 -5 98 -5 218 l1 217 197 112 c108 62 198
112 200 113 1 0 2 -98 2 -217z"/>
<path d="M2431 1902 c-100 -53 -89 -195 17 -232 112 -39 210 75 154 179 -20
38 -73 71 -112 71 -14 0 -41 -8 -59 -18z"/>
</g>
</svg>
