<?xml version="1.0" standalone="no"?>
<!DOCTYPE svg PUBLIC "-//W3C//DTD SVG 20010904//EN"
 "http://www.w3.org/TR/2001/REC-SVG-20010904/DTD/svg10.dtd">
<svg version="1.0" xmlns="http://www.w3.org/2000/svg"
 width="500.000000pt" height="500.000000pt" viewBox="0 0 500.000000 500.000000"
 preserveAspectRatio="xMidYMid meet">
<metadata>
Created by potrace 1.16, written by Peter Selinger 2001-2019
</metadata>
<g transform="translate(0.000000,500.000000) scale(0.100000,-0.100000)"
fill="#000000" stroke="none">
<path d="M1425 4362 c-114 -38 -187 -85 -281 -178 -116 -115 -155 -197 -230
-497 l-57 -228 -46 46 c-25 25 -75 60 -111 78 -62 31 -70 32 -209 35 -170 5
-200 -2 -265 -59 -73 -64 -76 -75 -76 -263 l0 -164 33 -43 c18 -24 52 -57 75
-73 37 -27 52 -30 133 -34 l91 -5 -166 -166 -166 -166 0 -609 c0 -541 2 -612
16 -642 18 -38 99 -114 120 -114 11 0 14 -43 14 -228 0 -226 0 -228 26 -281
17 -33 42 -64 68 -82 22 -16 46 -33 53 -39 17 -14 789 -14 806 0 7 6 31 23 53
39 26 18 51 49 68 82 26 52 26 55 26 271 l0 218 1090 0 1090 0 0 -218 c0 -216
0 -219 26 -271 17 -33 42 -64 68 -82 22 -16 46 -33 53 -39 17 -14 789 -14 806
0 7 6 31 23 53 39 26 18 51 49 68 82 26 53 26 55 26 281 0 185 3 228 14 228
21 0 102 76 120 114 14 30 16 101 16 642 l0 609 -166 166 -166 166 91 5 c81 4
96 7 133 34 23 16 57 49 75 73 l33 43 0 164 c0 187 -3 196 -73 261 -62 58 -97
66 -268 61 -140 -3 -147 -4 -211 -36 -37 -18 -86 -53 -111 -77 l-44 -45 -57
227 c-68 269 -112 372 -201 471 -95 104 -223 185 -348 218 -43 11 -232 14
-1032 14 l-980 0 -80 -28z m1994 -143 c191 -30 341 -150 405 -321 19 -51 196
-721 196 -742 0 -3 -30 -6 -68 -6 l-67 0 -69 278 c-37 152 -75 304 -82 337 -8
33 -24 80 -36 103 -32 68 -117 148 -195 185 l-68 32 -945 0 -945 0 -68 -32
c-78 -37 -163 -117 -195 -185 -12 -23 -28 -70 -35 -103 -8 -33 -45 -185 -83
-337 l-69 -278 -67 0 c-38 0 -68 3 -68 6 0 21 177 691 196 742 65 173 209 288
404 322 70 12 1784 12 1859 -1z m25 -329 c87 -45 98 -70 187 -421 43 -173 79
-315 79 -316 0 -2 -549 -3 -1221 -3 -1158 0 -1220 1 -1215 18 3 9 37 145 76
302 39 157 75 297 82 313 6 15 28 45 49 67 70 72 28 69 1024 67 l891 -2 48
-25z m-2846 -452 c70 -17 146 -96 161 -166 6 -29 11 -69 11 -87 l0 -35 -205 0
c-205 0 -206 0 -230 25 -23 22 -25 31 -25 125 0 94 2 103 25 125 22 23 31 25
120 25 53 0 117 -5 143 -12z m4047 -13 c23 -22 25 -31 25 -125 0 -94 -2 -103
-25 -125 -24 -25 -25 -25 -230 -25 l-205 0 0 35 c0 18 5 58 11 87 9 44 20 62
63 104 63 62 95 72 234 73 97 1 104 0 127 -24z m-414 -461 c49 -15 70 -32 218
-179 l165 -163 -92 -46 -92 -46 -1940 0 -1940 0 -92 46 -92 46 165 163 c142
141 171 165 214 178 44 14 253 16 1741 16 1527 1 1696 -1 1745 -15z m-3781
-634 c0 -33 -2 -60 -5 -60 -2 0 -34 16 -70 36 l-65 36 0 59 0 59 70 -35 70
-35 0 -60z m4220 70 l0 -59 -63 -36 c-35 -19 -67 -35 -70 -35 -4 0 -7 27 -7
60 l0 60 68 34 c37 19 68 35 70 36 1 0 2 -27 2 -60z m-3438 -157 c-1 -65 -4
-127 -7 -139 -9 -39 -43 -44 -306 -44 l-250 0 -24 25 c-24 23 -25 30 -25 150
l0 125 308 0 307 0 -3 -117z m2348 42 l0 -75 -1090 0 -1090 0 0 75 0 75 1090
0 1090 0 0 -75z m780 -50 c0 -120 -1 -127 -25 -150 l-24 -25 -250 0 c-263 0
-297 5 -306 44 -3 12 -6 74 -7 139 l-3 117 308 0 307 0 0 -125z m-3972 -129
c55 -28 69 -40 80 -69 17 -46 98 -120 150 -135 26 -8 131 -12 318 -12 249 0
283 2 319 19 46 21 99 70 121 112 l15 29 155 0 155 0 -3 -77 -3 -77 -33 -10
c-42 -12 -116 -76 -132 -116 l-12 -30 -604 0 -604 0 0 200 c0 110 2 200 5 200
3 0 36 -15 73 -34z m4282 -166 l0 -200 -604 0 -604 0 -12 30 c-16 39 -94 108
-134 118 -31 8 -31 8 -34 85 l-3 77 155 0 155 0 15 -29 c22 -42 75 -91 121
-112 36 -17 70 -19 319 -19 185 0 292 4 318 12 51 15 126 82 149 132 14 32 30
46 81 73 35 17 66 32 71 33 4 0 7 -90 7 -200z m-2650 35 l0 -75 -75 0 -75 0 0
75 0 75 75 0 75 0 0 -75z m780 -80 l0 -155 -310 0 -310 0 0 155 0 155 310 0
310 0 0 -155z m310 80 l0 -75 -75 0 -75 0 0 75 0 75 75 0 75 0 0 -75z m-1090
-297 c0 -39 5 -57 22 -75 l21 -23 426 0 c422 0 425 0 448 22 18 17 23 32 23
75 l0 53 149 0 c127 0 152 -3 169 -17 12 -11 38 -72 64 -150 l44 -133 -896 0
-896 0 44 133 c26 78 52 139 64 150 17 14 42 17 169 17 l149 0 0 -52z m-566
-120 c-4 -13 -15 -45 -24 -73 l-17 -50 -527 -3 -527 -2 -24 24 c-20 20 -25 35
-25 76 l0 50 576 0 575 0 -7 -22z m3214 -35 c-9 -100 32 -94 -576 -91 l-525 3
-17 50 c-9 28 -20 60 -24 73 l-7 22 577 0 576 0 -4 -57z m-4058 -488 l0 -225
-37 0 c-107 1 -113 15 -113 260 l0 190 75 0 75 0 0 -225z m310 0 l0 -225 -70
0 -70 0 0 225 0 225 70 0 70 0 0 -225z m310 23 c0 -112 -4 -208 -8 -214 -13
-20 -50 -34 -91 -34 l-41 0 0 225 0 225 70 0 70 0 0 -202z m2660 -23 l0 -225
-41 0 c-41 0 -78 14 -91 34 -4 6 -8 102 -8 214 l0 202 70 0 70 0 0 -225z m310
0 l0 -225 -70 0 -70 0 0 225 0 225 70 0 70 0 0 -225z m320 35 c0 -245 -6 -259
-112 -260 l-38 0 0 225 0 225 75 0 75 0 0 -190z"/>
</g>
</svg>
