<?xml version="1.0" standalone="no"?>
<!DOCTYPE svg PUBLIC "-//W3C//DTD SVG 20010904//EN"
 "http://www.w3.org/TR/2001/REC-SVG-20010904/DTD/svg10.dtd">
<svg version="1.0" xmlns="http://www.w3.org/2000/svg"
 width="500.000000pt" height="500.000000pt" viewBox="0 0 500.000000 500.000000"
 preserveAspectRatio="xMidYMid meet">

<g transform="translate(0.000000,500.000000) scale(0.100000,-0.100000)"
fill="#000000" stroke="none">
<path d="M895 4549 c-109 -25 -216 -87 -275 -161 -184 -229 -125 -567 126
-714 17 -10 17 -13 0 -88 -38 -160 -36 -368 4 -526 27 -107 95 -252 155 -331
26 -34 45 -62 43 -64 -2 -2 -27 -17 -56 -34 -256 -150 -429 -387 -492 -674
-19 -89 -29 -221 -19 -271 22 -119 102 -228 208 -285 l60 -31 -20 -45 c-65
-147 -64 -352 2 -511 99 -239 333 -382 561 -345 98 15 204 68 281 140 l62 58
51 -23 c133 -59 332 -56 453 5 l41 21 36 -40 c51 -56 142 -114 221 -141 227
-77 494 36 610 258 l28 53 798 2 799 3 19 24 c18 22 19 46 19 518 l0 494 -25
24 c-24 25 -24 25 -240 25 l-215 0 0 454 0 453 -26 39 c-15 21 -128 184 -252
362 -228 326 -243 343 -290 328 -16 -5 -232 -305 -464 -644 l-58 -84 0 -219
c0 -120 -3 -219 -7 -219 -5 1 -26 23 -48 51 -51 63 -164 158 -252 211 -37 22
-69 42 -71 43 -2 2 17 30 43 64 68 89 132 232 160 358 30 131 34 335 9 448
-29 136 -31 126 27 165 286 192 253 647 -59 803 -138 69 -282 71 -420 7 -69
-32 -168 -120 -198 -175 -10 -19 -24 -35 -30 -35 -7 0 -52 10 -101 22 -77 20
-114 23 -288 23 -174 0 -211 -3 -288 -23 -49 -12 -94 -22 -101 -22 -6 0 -20
16 -30 35 -27 50 -123 138 -185 170 -93 47 -215 64 -306 44z m227 -147 c49
-22 116 -77 149 -123 l20 -28 -43 -22 c-143 -72 -308 -226 -388 -362 -25 -42
-50 -77 -56 -77 -23 0 -92 72 -125 132 -32 60 -34 68 -34 163 0 117 16 158 94
238 77 81 148 109 261 103 47 -2 92 -11 122 -24z m1640 0 c62 -27 143 -104
176 -167 24 -44 27 -61 27 -150 0 -95 -2 -103 -34 -163 -31 -57 -104 -132
-127 -132 -5 0 -29 35 -54 77 -81 136 -245 290 -388 362 -49 25 -49 23 17 94
73 78 149 108 261 104 49 -2 92 -11 122 -25z m-838 -182 c355 -35 628 -215
761 -503 160 -347 80 -787 -189 -1035 -165 -153 -368 -229 -632 -239 -344 -13
-579 69 -781 273 -206 208 -290 542 -212 846 79 311 308 540 625 624 146 39
273 49 428 34z m1679 -883 c3 -7 76 -114 162 -238 87 -123 160 -230 162 -236
4 -10 -68 -13 -342 -13 -274 0 -346 3 -342 13 2 6 75 113 162 236 86 124 159
231 162 238 7 17 29 17 36 0z m397 -1032 l0 -415 -389 0 -390 0 -11 58 c-6 31
-18 77 -26 101 -11 35 -14 112 -14 358 l0 313 415 0 415 0 0 -415z m-2864 199
c33 -23 87 -55 121 -73 l63 -31 -35 -46 c-111 -144 -192 -360 -216 -567 l-11
-105 -64 -17 c-78 -21 -164 -71 -226 -132 l-47 -46 -43 12 c-60 18 -140 101
-163 171 -21 65 -15 156 19 293 46 179 117 299 255 429 107 101 245 185 272
165 9 -6 43 -31 75 -53z m1613 -49 c174 -135 283 -302 331 -507 48 -207 36
-294 -55 -384 -33 -33 -67 -57 -93 -65 l-42 -12 -52 51 c-60 60 -138 103 -224
128 l-61 17 -7 76 c-16 197 -103 439 -207 578 -21 29 -39 56 -39 60 0 4 33 25
73 45 39 21 99 58 132 83 l59 45 65 -36 c35 -20 90 -55 120 -79z m-1204 -122
c58 -12 131 -16 260 -16 129 0 202 4 260 16 44 9 85 17 91 17 21 0 115 -133
160 -225 24 -49 55 -133 68 -185 27 -101 47 -248 35 -256 -4 -2 -36 -13 -71
-24 -86 -27 -148 -65 -216 -132 -69 -68 -114 -141 -150 -240 -23 -65 -26 -88
-26 -213 0 -127 2 -147 27 -218 15 -42 27 -79 27 -81 0 -2 -21 -12 -47 -22
-68 -27 -248 -27 -315 0 -27 10 -48 21 -48 24 0 2 12 37 27 76 25 65 27 83 28
216 0 133 -2 151 -27 218 -70 194 -204 326 -380 377 l-58 16 0 44 c0 110 61
324 126 441 43 78 122 184 137 184 7 0 48 -8 92 -17z m1975 -988 l0 -415 -250
0 -251 0 6 63 c4 34 8 68 10 75 3 9 43 12 153 12 202 0 187 -22 187 271 0 268
3 261 -99 267 -61 4 -64 5 -57 26 5 11 11 42 15 69 l7 47 140 0 139 0 0 -415z
m960 0 l0 -415 -415 0 -415 0 0 415 0 415 415 0 415 0 0 -415z m-3231 186
c135 -51 242 -186 277 -349 17 -85 17 -130 -1 -217 -68 -324 -385 -476 -624
-301 -123 90 -191 235 -191 406 0 149 42 262 136 360 113 118 261 155 403 101z
m1376 -2 c112 -42 219 -170 260 -313 20 -68 22 -211 5 -276 -44 -165 -153
-288 -292 -332 -219 -68 -439 76 -508 332 -6 24 -12 82 -12 130 0 144 44 261
135 358 118 124 259 158 412 101z m625 -179 l0 -140 -114 0 -114 0 -27 81
c-14 44 -25 82 -23 83 2 2 26 15 55 31 28 15 64 40 79 56 24 25 35 29 86 29
l58 0 0 -140z"/>
<path d="M1350 3510 c-25 -25 -25 -51 -2 -80 35 -43 112 -15 112 41 0 27 -35
59 -65 59 -14 0 -34 -9 -45 -20z"/>
<path d="M2170 3510 c-25 -25 -25 -51 -2 -80 35 -43 112 -15 112 41 0 27 -35
59 -65 59 -14 0 -34 -9 -45 -20z"/>
<path d="M1657 3390 c-69 -13 -117 -77 -117 -157 0 -67 24 -101 119 -169 l81
-58 0 -113 c0 -104 -2 -114 -17 -109 -10 3 -38 10 -63 16 -105 28 -206 103
-243 183 -10 21 -22 61 -26 88 -10 59 -28 82 -67 82 -45 0 -67 -37 -59 -97 31
-235 253 -399 540 -399 287 0 507 162 539 399 6 41 4 54 -11 73 -40 50 -113
18 -113 -49 0 -53 -53 -153 -103 -194 -51 -41 -108 -70 -167 -86 -25 -6 -53
-13 -62 -16 -16 -5 -18 5 -18 109 l0 113 81 58 c95 68 119 102 119 169 0 82
-43 138 -120 156 -51 12 -235 13 -293 1z m281 -132 c7 -7 12 -17 12 -24 0 -11
-131 -114 -145 -114 -14 0 -145 103 -145 114 0 30 25 36 145 36 81 0 125 -4
133 -12z"/>
<path d="M3494 2557 c-108 -42 -174 -137 -174 -252 0 -96 40 -170 124 -227 46
-31 53 -33 140 -33 86 0 94 2 143 33 86 56 128 140 121 245 -2 34 -12 78 -22
98 -22 47 -78 103 -125 125 -44 22 -164 28 -207 11z m139 -121 c43 -17 85 -68
93 -111 10 -53 -26 -118 -80 -144 -23 -12 -51 -21 -61 -21 -10 0 -38 9 -61 21
-54 26 -90 91 -80 144 12 60 82 123 139 125 10 0 32 -6 50 -14z"/>
<path d="M4039 1607 c-31 -15 -238 -417 -239 -463 0 -61 11 -64 267 -64 210 0
231 2 246 18 10 10 17 29 17 43 -1 13 -51 123 -113 243 -117 230 -130 246
-178 223z m76 -297 c25 -49 45 -92 45 -94 0 -6 -190 -12 -190 -6 -1 12 86 189
92 190 4 0 28 -40 53 -90z"/>
</g>
</svg>
