<?xml version="1.0" standalone="no"?>
<!DOCTYPE svg PUBLIC "-//W3C//DTD SVG 20010904//EN"
 "http://www.w3.org/TR/2001/REC-SVG-20010904/DTD/svg10.dtd">
<svg version="1.0" xmlns="http://www.w3.org/2000/svg"
 width="500.000000pt" height="500.000000pt" viewBox="0 0 500.000000 500.000000"
 preserveAspectRatio="xMidYMid meet">

<g transform="translate(0.000000,500.000000) scale(0.100000,-0.100000)"
fill="#000000" stroke="none">
<path d="M1132 4599 c-70 -12 -144 -50 -193 -101 -51 -53 -58 -67 -132 -262
-59 -155 -61 -165 -62 -256 0 -94 4 -111 53 -202 2 -4 -80 -8 -182 -10 -162
-3 -188 -5 -203 -21 -16 -16 -18 -43 -21 -255 -2 -147 1 -249 7 -265 15 -40
53 -54 85 -33 l26 16 2 218 3 217 222 3 c218 2 223 2 330 -27 349 -96 464
-129 468 -133 3 -3 -21 -47 -53 -99 -72 -115 -165 -284 -220 -402 l-41 -87
-353 2 -353 3 -5 58 c-3 36 -11 62 -20 67 -18 12 -51 13 -67 2 -44 -28 -44
-216 0 -244 7 -4 69 -8 140 -8 l127 0 0 -1160 c0 -1147 0 -1160 20 -1180 20
-20 33 -20 1780 -20 1752 0 1760 0 1780 20 19 19 20 31 18 232 l-3 211 -26 19
c-23 17 -30 18 -50 8 -13 -7 -27 -18 -31 -24 -4 -6 -8 -86 -8 -178 l0 -168
-650 0 -650 0 0 1095 c0 602 4 1095 8 1095 13 0 126 -241 180 -385 81 -214
134 -406 172 -620 24 -133 38 -158 84 -153 26 3 41 18 98 98 37 52 97 143 134
203 36 59 70 107 75 107 13 0 188 -131 297 -222 99 -84 133 -96 166 -59 16 17
16 27 6 98 -39 264 -132 606 -239 878 -17 44 -31 86 -31 93 0 9 42 12 175 12
l175 0 0 -844 c0 -929 -4 -876 60 -876 63 0 60 -40 60 882 l0 838 129 0 c143
0 155 5 166 63 3 18 5 224 3 459 -3 394 -4 429 -21 445 -15 16 -41 18 -203 21
-102 2 -184 6 -182 10 49 91 53 108 53 202 -1 91 -3 102 -59 250 -72 192 -84
215 -135 268 -98 101 -249 132 -386 79 -22 -8 -219 -100 -438 -204 l-398 -190
-42 21 c-39 20 -58 21 -287 21 -229 0 -248 -1 -287 -21 l-42 -21 -403 191
c-222 106 -423 199 -448 208 -61 22 -115 27 -178 17z m528 -311 c223 -105 408
-194 412 -197 4 -3 2 -40 -4 -82 l-11 -75 -171 86 c-176 88 -370 160 -490 181
-37 6 -107 9 -155 7 -103 -5 -185 -38 -226 -92 -31 -40 -33 -91 -6 -106 34
-18 60 -11 99 25 21 19 51 39 66 45 38 14 159 12 236 -4 133 -28 377 -131 561
-237 l89 -51 0 -160 c0 -126 -3 -159 -13 -155 -7 2 -127 36 -267 75 -140 39
-372 103 -515 142 -143 40 -271 78 -285 85 -14 7 -39 28 -56 47 -85 90 -86
151 -4 369 33 89 69 176 80 194 41 66 134 109 215 99 23 -3 212 -86 445 -196z
m2180 191 c56 -12 114 -52 140 -94 11 -18 47 -105 80 -194 82 -218 81 -279 -4
-369 -17 -19 -42 -40 -56 -47 -14 -7 -140 -45 -280 -83 -140 -39 -372 -103
-515 -143 -143 -39 -265 -74 -272 -76 -10 -4 -13 30 -13 158 l0 164 123 66
c427 232 721 290 836 165 29 -31 64 -33 91 -6 28 28 25 54 -12 95 -55 63 -118
88 -234 93 -170 7 -358 -49 -648 -194 -82 -41 -150 -73 -151 -72 -7 10 -23
144 -17 149 16 14 819 388 842 392 41 7 43 7 90 -4z m-1102 -389 c58 -36 62
-58 62 -370 0 -299 -3 -324 -50 -365 -21 -19 -36 -20 -260 -20 -330 0 -310
-24 -310 385 0 312 4 334 62 370 30 18 50 20 248 20 198 0 218 -2 248 -20z
m1727 -815 l0 -370 -353 -3 -353 -2 -41 87 c-55 118 -148 287 -220 402 -38 61
-55 97 -48 101 6 4 91 29 188 55 97 27 220 61 272 76 92 26 102 27 325 25
l230 -1 0 -370z m-2580 120 c197 -54 200 -55 234 -95 18 -23 55 -52 82 -65
l48 -25 -50 -72 c-246 -355 -449 -830 -544 -1273 l-18 -80 -21 27 c-11 16 -60
92 -107 170 -78 131 -88 143 -117 146 -35 4 -84 -26 -255 -156 -54 -40 -101
-72 -103 -69 -3 2 5 47 16 98 105 476 286 922 543 1337 38 61 74 112 81 112 6
0 101 -25 211 -55z m1488 -32 c258 -408 451 -879 557 -1362 11 -51 19 -96 16
-98 -2 -3 -49 29 -103 69 -171 130 -220 160 -255 156 -29 -3 -39 -15 -117
-146 -47 -78 -96 -154 -107 -170 l-21 -27 -18 80 c-95 443 -298 918 -544 1273
l-50 72 48 25 c27 13 64 42 82 65 34 40 38 42 229 95 107 29 202 54 211 54 10
1 38 -33 72 -86z m-731 -238 c61 -84 138 -206 138 -218 0 -4 -130 -7 -290 -7
-159 0 -290 3 -290 8 0 12 88 151 147 230 l54 73 92 -3 92 -3 57 -80z m-1482
-357 c0 -7 -14 -49 -31 -93 -107 -272 -200 -614 -239 -878 -10 -71 -10 -81 6
-98 33 -37 67 -25 166 59 109 91 284 222 297 222 5 0 39 -48 75 -107 37 -60
97 -151 134 -203 57 -80 72 -95 98 -98 46 -5 60 20 84 153 38 214 91 406 172
620 54 144 167 385 180 385 4 0 8 -493 8 -1095 l0 -1095 -650 0 -650 0 0 1120
0 1120 175 0 c133 0 175 -3 175 -12z m1590 -1108 l0 -1115 -260 0 -260 0 0
1113 c0 611 0 1114 0 1117 0 3 117 4 260 3 l260 -3 0 -1115z"/>
</g>
</svg>
