<?xml version="1.0" standalone="no"?>
<!DOCTYPE svg PUBLIC "-//W3C//DTD SVG 20010904//EN"
 "http://www.w3.org/TR/2001/REC-SVG-20010904/DTD/svg10.dtd">
<svg version="1.0" xmlns="http://www.w3.org/2000/svg"
 width="500.000000pt" height="500.000000pt" viewBox="0 0 500.000000 500.000000"
 preserveAspectRatio="xMidYMid meet">

<g transform="translate(0.000000,500.000000) scale(0.100000,-0.100000)"
fill="#000000" stroke="none">
<path d="M3480 4834 c-122 -33 -216 -117 -261 -231 -18 -46 -23 -78 -23 -153
l0 -95 152 -381 152 -380 0 -263 c0 -254 1 -271 40 -539 39 -268 65 -622 46
-622 -5 0 -38 27 -74 61 -119 109 -275 192 -447 239 -102 28 -330 38 -443 20
-283 -45 -561 -218 -713 -444 -24 -36 -47 -66 -51 -66 -4 0 -8 123 -10 273
l-3 272 -32 67 c-54 114 -150 191 -271 217 -29 6 -97 11 -151 11 -84 0 -102
-3 -125 -21 l-26 -20 0 -605 c0 -538 -2 -604 -15 -604 -9 0 -27 -11 -40 -25
l-25 -24 0 -612 c0 -598 0 -614 21 -655 15 -31 32 -48 63 -63 39 -20 60 -21
299 -21 264 0 293 4 334 42 l22 21 53 -21 c29 -12 73 -26 98 -32 60 -13 1429
-13 1490 0 25 6 61 17 81 26 35 15 37 15 62 -10 l26 -26 255 0 c250 0 255 0
281 23 l25 22 40 1145 40 1145 40 279 c39 270 40 288 40 542 l0 263 145 363
c165 415 181 470 160 570 -30 142 -93 226 -213 285 l-76 38 -455 2 c-379 2
-465 0 -511 -13z m954 -146 c26 -8 60 -31 92 -63 64 -63 85 -133 67 -219 -7
-28 -73 -203 -148 -388 l-137 -338 -45 0 c-38 0 -44 3 -39 18 27 84 126 447
126 461 0 45 -65 75 -109 51 -24 -12 -31 -32 -86 -230 -77 -278 -85 -300 -100
-300 -13 0 -15 37 -15 244 0 231 -1 245 -21 270 -28 36 -80 36 -108 0 -20 -25
-21 -39 -21 -270 0 -198 -3 -244 -13 -244 -9 0 -37 81 -83 247 -38 135 -77
257 -88 270 -26 34 -81 29 -110 -10 l-20 -27 67 -233 c37 -127 67 -235 67
-239 0 -5 -20 -8 -44 -8 l-45 0 -140 355 c-123 309 -141 362 -141 411 0 113
44 188 134 230 l51 24 434 0 c311 0 445 -3 475 -12z m-155 -1415 c0 -236 -3
-276 -32 -473 l-32 -215 -47 -3 -48 -3 0 169 c0 156 -2 171 -21 196 -28 36
-80 36 -108 0 -19 -25 -21 -40 -21 -195 l0 -169 -125 0 c-121 0 -125 1 -129
23 -3 12 -19 117 -36 232 -27 188 -30 235 -30 453 l0 242 315 0 315 0 -1 -257z
m-2719 -624 c51 -23 95 -61 116 -101 8 -15 14 -29 14 -33 0 -3 -28 -5 -63 -5
-81 0 -154 34 -197 93 -16 22 -30 47 -30 54 0 21 107 16 160 -8z m-68 -265
c24 -8 81 -19 128 -22 l85 -7 0 -235 0 -235 -162 -3 -163 -2 0 273 c0 151 3
277 6 280 4 4 19 -3 35 -14 15 -10 47 -26 71 -35z m2705 -156 c-25 -794 -58
-1775 -63 -1836 l-6 -72 -164 0 c-110 0 -164 4 -164 11 0 6 11 29 24 52 42 71
56 148 56 299 0 163 -7 178 -84 178 -25 0 -47 4 -50 9 -3 5 5 28 18 52 40 72
83 208 100 316 34 214 12 405 -70 603 -48 115 -51 133 -58 383 l-7 217 237 0
237 0 -6 -212z m-1167 102 c381 -109 645 -406 701 -790 25 -177 -6 -362 -91
-535 -71 -145 -71 -145 -184 -145 -51 0 -95 3 -99 6 -3 3 16 33 43 66 59 74
112 179 142 284 31 113 31 288 0 398 -43 151 -116 271 -225 372 -81 75 -154
119 -262 156 -121 42 -234 55 -348 40 -189 -24 -327 -91 -458 -221 -121 -121
-181 -235 -215 -409 -42 -219 25 -473 169 -638 28 -32 35 -45 25 -49 -8 -3
-77 -4 -153 -3 l-140 3 -5 330 c-3 182 -9 336 -13 343 -5 7 -20 17 -33 22 -29
11 -28 17 21 163 73 220 230 404 445 525 64 35 212 87 291 101 89 16 303 6
389 -19z m-118 -298 c4 -4 -31 -115 -78 -247 -47 -132 -137 -388 -201 -570
-64 -181 -121 -336 -126 -342 -9 -13 -41 2 -106 49 l-24 17 103 293 c215 611
270 766 280 793 10 28 11 28 77 22 37 -4 70 -10 75 -15z m-377 -209 c-148
-429 -261 -735 -270 -735 -15 -1 -62 99 -81 172 -22 84 -22 226 0 310 45 175
158 317 327 410 96 53 96 53 24 -157z m591 129 c22 -15 60 -44 84 -64 l43 -38
-113 -312 c-62 -172 -140 -389 -172 -483 -33 -93 -64 -175 -70 -182 -11 -13
-190 -19 -220 -8 -11 5 18 96 129 408 79 221 167 471 196 554 36 106 57 153
67 153 8 0 33 -12 56 -28z m-1421 -302 l0 -75 -162 -3 -163 -2 0 80 0 80 163
-2 162 -3 0 -75z m1685 -27 c16 -48 24 -100 28 -178 5 -128 -15 -224 -71 -330
-35 -68 -171 -209 -229 -240 -74 -39 -72 -27 77 387 76 211 142 393 146 406
14 36 25 26 49 -45z m-1610 -283 l0 -80 -235 0 -235 0 0 80 0 80 235 0 235 0
0 -80z m0 -625 l0 -395 -235 0 -235 0 0 395 0 395 235 0 235 0 0 -395z m570
-37 c29 -101 108 -189 208 -236 55 -26 63 -27 237 -27 174 0 182 1 237 27 80
37 142 98 183 181 19 38 35 76 35 84 0 11 41 13 243 11 l242 -3 3 -73 c4 -110
-17 -173 -81 -237 -90 -89 -47 -85 -863 -85 -773 0 -756 -1 -831 56 l-33 25 0
160 0 159 203 0 204 0 13 -42z m750 34 c0 -17 -59 -90 -92 -115 -53 -40 -102
-50 -239 -45 -136 4 -161 12 -218 70 -37 37 -63 82 -54 92 10 9 603 7 603 -2z"/>
<path d="M4004 3352 c-22 -14 -34 -52 -34 -107 0 -46 4 -60 25 -80 13 -14 36
-25 50 -25 14 0 37 11 50 25 34 33 36 128 4 169 -20 26 -69 36 -95 18z"/>
<path d="M577 3203 c-25 -7 -47 -56 -47 -108 l0 -45 -49 0 c-61 0 -101 -28
-101 -71 0 -47 31 -69 95 -69 l55 0 0 -45 0 -45 -90 0 c-83 0 -93 -2 -115 -25
-14 -13 -25 -36 -25 -50 0 -14 11 -37 25 -50 22 -23 32 -25 115 -25 l90 0 0
-45 0 -45 -94 0 c-90 0 -96 -1 -115 -26 -27 -35 -26 -59 4 -89 22 -23 32 -25
115 -25 l90 0 0 -45 0 -45 -49 0 c-91 0 -133 -69 -76 -125 19 -20 34 -25 75
-25 l50 0 0 -160 0 -160 -70 0 c-44 0 -82 -6 -100 -15 -56 -29 -60 -51 -60
-302 l0 -228 -40 -150 -40 -150 0 -345 c0 -221 4 -359 11 -385 14 -51 73 -110
124 -124 24 -6 130 -11 260 -11 243 0 272 6 326 66 47 51 49 74 49 451 l0 354
-40 159 -40 159 0 225 0 226 -29 32 c-28 32 -33 33 -115 37 l-86 3 0 159 0
159 45 0 c87 0 132 48 101 108 -17 32 -39 42 -103 42 l-43 0 0 45 0 45 95 0
c108 0 135 14 135 70 0 56 -27 70 -135 70 l-95 0 0 45 0 45 86 0 c114 0 144
16 144 77 0 54 -36 73 -142 73 l-89 0 3 43 3 42 56 3 c66 3 92 25 92 74 0 46
-32 68 -99 68 l-54 0 0 55 c0 46 -4 60 -25 80 -23 24 -40 28 -78 18z m193
-1633 l0 -160 -160 0 -160 0 0 160 0 160 160 0 160 0 0 -160z m34 -375 c26
-104 45 -95 -199 -95 -118 0 -215 3 -215 6 0 7 29 123 35 142 3 9 49 12 183
12 l180 0 16 -65z m46 -544 c0 -259 -2 -302 -16 -315 -13 -14 -48 -16 -228
-16 -151 0 -215 3 -224 12 -9 9 -12 93 -12 315 l0 303 240 0 240 0 0 -299z"/>
</g>
</svg>
