<?xml version="1.0" standalone="no"?>
<!DOCTYPE svg PUBLIC "-//W3C//DTD SVG 20010904//EN"
 "http://www.w3.org/TR/2001/REC-SVG-20010904/DTD/svg10.dtd">
<svg version="1.0" xmlns="http://www.w3.org/2000/svg"
 width="500.000000pt" height="500.000000pt" viewBox="0 0 500.000000 500.000000"
 preserveAspectRatio="xMidYMid meet">

<g transform="translate(0.000000,500.000000) scale(0.100000,-0.100000)"
fill="#000000" stroke="none">
<path d="M1500 4460 c-326 -69 -624 -297 -818 -625 -120 -202 -164 -362 -163
-590 2 -345 148 -724 423 -1098 l50 -67 26 20 c15 11 37 28 50 37 l22 18 -58
80 c-178 242 -297 487 -360 735 -23 93 -26 125 -27 280 0 154 3 185 23 255 55
189 168 372 332 536 151 151 295 239 476 291 107 30 311 32 394 4 156 -53 275
-133 451 -303 105 -102 144 -133 164 -133 20 0 55 27 142 111 201 193 369 299
529 335 152 33 355 0 531 -88 282 -140 543 -457 625 -759 33 -119 33 -379 0
-515 -72 -303 -246 -626 -497 -919 -47 -55 -84 -104 -82 -109 2 -5 21 -24 44
-43 l41 -34 79 93 c283 332 459 659 534 993 27 116 36 356 19 463 -40 249
-180 503 -393 709 -225 218 -459 327 -732 340 -102 4 -134 2 -210 -16 -175
-42 -351 -149 -531 -323 l-94 -91 -92 89 c-183 174 -357 282 -522 324 -101 26
-257 26 -376 0z"/>
<path d="M1722 4003 c-11 -10 -93 -121 -182 -247 -123 -172 -163 -237 -163
-259 0 -40 146 -187 187 -187 16 0 65 26 124 65 l97 65 76 0 c117 0 109 28
109 -394 l0 -357 -37 -16 c-476 -198 -783 -551 -880 -1013 -23 -107 -25 -410
-4 -513 7 -37 11 -71 8 -74 -4 -3 -40 16 -82 41 l-75 47 0 128 c0 71 -5 143
-11 162 -15 44 -54 86 -103 111 -83 43 -202 2 -248 -85 -22 -40 -23 -55 -26
-292 -2 -149 0 -260 6 -276 8 -19 84 -72 289 -200 l278 -174 1505 0 1505 0
142 72 c160 82 164 86 203 224 24 89 27 238 5 319 -51 194 -204 347 -409 409
-64 20 -92 21 -429 21 -321 0 -362 2 -379 17 -17 15 -15 17 40 45 31 16 74 43
96 60 l38 31 117 -33 c64 -18 121 -35 127 -37 9 -3 48 107 40 114 -1 2 -45 15
-97 29 -52 15 -96 28 -98 30 -2 2 7 27 20 56 17 38 25 78 29 142 l5 89 73 31
c40 17 73 36 72 41 0 6 -9 31 -20 58 l-21 47 -37 -16 c-70 -30 -72 -30 -72 11
0 29 -21 72 -96 198 -54 89 -106 172 -117 185 -38 42 -64 30 -167 -73 -74 -74
-101 -95 -122 -95 l-28 0 0 413 0 413 53 52 c75 74 100 73 231 -13 99 -66 129
-75 158 -52 22 17 158 226 158 242 0 15 -249 396 -283 433 -19 20 -29 22 -139
22 -66 0 -127 -4 -136 -9 -9 -5 -44 -64 -77 -130 l-59 -121 -361 0 -360 1 -54
112 c-30 62 -61 120 -69 130 -13 15 -35 17 -172 17 -136 0 -161 -2 -178 -17z
m324 -215 c31 -62 63 -121 72 -130 14 -17 48 -18 436 -18 232 0 426 4 432 8 6
4 39 62 73 130 l61 122 65 0 65 0 110 -165 c60 -90 110 -167 110 -170 0 -9
-72 -105 -78 -105 -4 0 -41 23 -82 50 l-75 50 -89 0 -90 0 -83 -83 -83 -83 0
-442 0 -442 -93 0 -92 0 -95 95 c-100 100 -129 114 -163 78 -8 -10 -61 -94
-116 -187 -74 -124 -101 -178 -101 -203 0 -39 -7 -40 -62 -12 -46 24 -46 23
-75 -50 -10 -26 -13 -46 -8 -48 6 -2 39 -16 75 -32 l65 -28 6 -89 c6 -90 14
-117 57 -188 13 -21 20 -42 15 -46 -4 -4 -53 -24 -108 -45 -55 -21 -104 -41
-108 -45 -8 -7 18 -86 33 -103 4 -4 69 15 145 44 111 43 140 50 154 41 34 -25
128 -70 169 -83 l42 -12 -2 -205 -3 -204 -192 1 -193 2 0 -59 0 -59 68 -6 c37
-4 124 -7 195 -7 l127 0 0 -200 0 -201 -72 3 -73 3 -7 42 c-15 93 -79 168
-167 198 -27 9 -80 15 -133 15 l-88 0 0 28 c-1 115 -69 277 -156 371 -109 119
-241 181 -411 195 l-83 7 0 -65 0 -66 63 0 c128 -1 229 -43 323 -135 95 -93
144 -217 144 -364 0 -86 9 -91 158 -91 109 0 129 -3 163 -22 37 -20 69 -68 69
-102 0 -14 -59 -16 -621 -16 l-621 0 -238 148 -239 147 0 232 -1 232 26 20
c35 27 59 26 89 -4 24 -23 25 -28 25 -178 0 -107 4 -158 13 -169 21 -27 351
-218 376 -218 55 0 74 49 47 115 -27 63 -57 227 -63 340 -19 359 104 676 361
930 137 136 307 245 481 310 39 14 76 33 83 42 9 13 12 115 12 431 l0 413 -51
55 -52 54 -121 0 -121 0 -84 -56 -84 -56 -29 30 c-21 21 -28 34 -22 44 5 8 67
96 139 196 l129 182 98 0 98 0 56 -112z m835 -1406 l220 -3 83 81 c63 61 85
78 93 68 5 -7 40 -63 76 -124 56 -94 67 -119 67 -157 l0 -44 -110 -48 c-60
-26 -110 -50 -110 -54 0 -3 10 -29 21 -57 l21 -51 80 33 c44 19 84 34 89 34
19 0 8 -73 -21 -129 l-29 -59 -61 18 c-45 13 -62 15 -65 7 -2 -7 -10 -33 -18
-59 l-15 -47 26 -9 27 -9 -43 -22 c-24 -12 -71 -27 -103 -33 -68 -12 -94 -38
-83 -82 3 -14 41 -59 84 -100 l79 -75 398 -3 c390 -3 399 -4 453 -26 119 -51
209 -136 264 -252 29 -60 31 -73 31 -175 0 -81 -5 -125 -19 -168 l-19 -58
-119 -60 -118 -59 -302 2 -301 3 -24 69 c-17 52 -23 92 -23 156 0 85 0 86 46
153 63 95 102 109 140 52 17 -26 17 -28 -14 -91 -18 -35 -32 -72 -32 -81 0
-10 23 -41 52 -70 l52 -53 173 0 173 0 0 60 0 60 -149 0 c-94 0 -152 4 -156
11 -4 5 1 27 12 47 28 57 24 140 -9 190 -51 76 -151 102 -236 61 -35 -17 -56
-40 -108 -118 l-64 -96 0 -121 c0 -94 4 -134 19 -177 l20 -57 -125 0 -124 0 0
230 0 230 -60 0 -60 0 0 -230 0 -230 -105 0 -105 0 0 504 c0 581 9 533 -105
560 -90 21 -98 31 -47 51 l41 17 -19 50 c-10 28 -21 53 -24 56 -3 2 -39 -8
-81 -23 -89 -32 -90 -31 -135 58 -32 64 -40 127 -16 127 8 0 44 -13 81 -30 37
-17 71 -30 76 -30 9 0 49 82 49 100 0 4 -49 29 -110 55 l-110 48 0 43 c0 36
13 64 76 169 l77 127 78 -78 79 -79 221 -3z"/>
<path d="M2230 3300 l0 -60 60 0 60 0 0 60 0 60 -60 0 -60 0 0 -60z"/>
<path d="M2630 3300 l0 -60 60 0 60 0 0 60 0 60 -60 0 -60 0 0 -60z"/>
<path d="M2360 3040 l0 -60 130 0 130 0 0 60 0 60 -130 0 -130 0 0 -60z"/>
<path d="M2630 2180 l0 -60 60 0 60 0 0 60 0 60 -60 0 -60 0 0 -60z"/>
<path d="M3020 2180 l0 -60 63 0 62 0 0 60 0 60 -62 0 -63 0 0 -60z"/>
<path d="M2825 1980 l0 -60 63 0 62 0 0 60 0 60 -62 0 -63 0 0 -60z"/>
</g>
</svg>
