<?xml version="1.0" standalone="no"?>
<!DOCTYPE svg PUBLIC "-//W3C//DTD SVG 20010904//EN"
 "http://www.w3.org/TR/2001/REC-SVG-20010904/DTD/svg10.dtd">
<svg version="1.0" xmlns="http://www.w3.org/2000/svg"
 width="500.000000pt" height="500.000000pt" viewBox="0 0 500.000000 500.000000"
 preserveAspectRatio="xMidYMid meet">

<g transform="translate(0.000000,500.000000) scale(0.100000,-0.100000)"
fill="#000000" stroke="none">
<path d="M2990 4738 c-311 -24 -631 -215 -806 -481 -47 -72 -114 -202 -114
-224 0 -6 -21 -15 -47 -19 -132 -19 -237 -95 -289 -206 -26 -56 -29 -74 -29
-158 1 -75 5 -105 22 -142 48 -106 173 -199 285 -214 l48 -7 48 -101 c86 -178
223 -336 382 -441 41 -26 77 -50 79 -52 2 -1 -16 -24 -40 -50 -24 -27 -60 -73
-79 -103 -40 -64 -46 -70 -80 -70 -14 0 -46 -7 -71 -16 l-46 -17 -66 69 c-69
74 -156 131 -250 166 -59 22 -104 62 -111 101 -2 12 -9 56 -15 97 -15 98 -48
168 -110 233 -222 235 -612 146 -710 -161 l-23 -70 -59 -4 c-46 -3 -67 -11
-96 -34 -58 -46 -85 -106 -81 -177 7 -102 81 -174 189 -185 l49 -5 -2 -176 -3
-176 -90 -6 c-154 -9 -258 -76 -321 -205 -25 -52 -29 -70 -29 -149 0 -64 5
-103 18 -134 43 -104 122 -178 232 -216 l60 -21 32 -139 c95 -404 114 -473
148 -541 120 -243 347 -396 629 -425 66 -6 404 -9 937 -7 909 4 860 1 1011 62
178 72 326 213 408 387 28 60 43 119 135 511 l37 157 31 7 c84 18 189 94 232
168 52 90 62 220 25 319 -28 74 -101 154 -177 192 -57 29 -62 30 -230 33
l-172 4 -6 36 c-24 172 -94 340 -193 464 -34 43 -62 79 -62 81 0 3 28 23 63
45 189 123 358 328 422 511 11 32 16 35 74 47 84 17 147 49 198 100 144 144
141 377 -6 517 -55 53 -141 96 -194 98 -43 1 -60 16 -82 72 -64 155 -209 338
-353 445 -217 161 -471 232 -752 210z m342 -143 c169 -47 321 -136 444 -259
141 -142 226 -299 266 -495 26 -123 20 -315 -11 -433 -46 -168 -141 -327 -268
-449 -98 -93 -149 -129 -268 -185 -240 -114 -527 -119 -781 -13 -403 168 -651
612 -580 1041 66 403 366 717 766 803 87 19 352 13 432 -10z m-1316 -747 c-15
-102 -18 -248 -7 -332 7 -48 10 -90 7 -93 -2 -3 -19 -2 -37 2 -45 10 -131 99
-147 151 -36 123 21 251 133 300 52 23 58 19 51 -28z m2213 23 c91 -47 153
-164 133 -255 -5 -25 -21 -65 -35 -89 -29 -49 -107 -107 -143 -107 -22 0 -23
2 -16 53 9 70 9 299 -1 365 -9 60 -1 65 62 33z m-2704 -785 c103 -51 161 -141
175 -274 4 -42 13 -89 19 -104 20 -51 90 -116 147 -138 120 -44 193 -94 258
-173 l35 -43 -26 -52 c-17 -35 -27 -75 -31 -122 l-5 -70 -503 0 -504 0 0 378
c0 431 1 438 77 522 97 108 232 137 358 76z m-555 -416 l0 -80 -34 0 c-45 0
-86 38 -86 80 0 43 39 80 85 80 l35 0 0 -80z m1908 -86 c96 -20 301 -23 402
-5 41 8 107 24 145 37 39 13 71 24 72 24 1 0 32 -35 68 -77 100 -117 176 -285
187 -413 l3 -35 -148 -5 c-161 -5 -170 -9 -165 -65 5 -53 19 -55 396 -55 l343
0 48 -25 c180 -91 181 -337 2 -427 l-55 -28 -1241 0 c-1378 0 -1285 5 -1285
-65 0 -24 6 -38 19 -45 13 -7 404 -10 1195 -10 1076 0 1176 -1 1176 -16 0 -30
-91 -417 -121 -516 -52 -172 -162 -306 -320 -388 -141 -73 -100 -71 -1127 -68
l-917 3 -82 33 c-94 38 -175 94 -249 173 -78 84 -120 167 -158 320 -36 141
-106 442 -106 453 0 3 114 6 254 6 280 0 286 1 286 60 0 58 -12 60 -350 60
-189 0 -320 4 -345 11 -53 14 -136 99 -153 155 -26 88 -5 175 56 239 78 81
-32 75 1322 75 948 0 1210 3 1230 13 29 15 40 76 17 95 -9 8 -100 13 -288 14
l-274 3 -6 75 c-7 103 -54 187 -128 232 -20 12 -38 23 -40 24 -8 6 46 83 97
136 l54 56 55 -19 c30 -10 89 -26 131 -35z m-387 -249 c67 -35 120 -136 101
-193 l-9 -27 -179 0 -179 0 -3 48 c-9 136 146 235 269 172z"/>
<path d="M3082 4554 c-28 -19 -28 -56 -2 -99 l20 -32 -30 -38 c-56 -70 -63
-143 -20 -213 28 -46 66 -59 99 -34 34 25 37 54 10 91 -25 34 -22 43 26 110
46 63 26 184 -36 216 -35 19 -39 19 -67 -1z"/>
<path d="M2551 3762 c-43 -21 -70 -57 -81 -107 -11 -48 2 -83 34 -91 41 -10
63 4 78 49 11 37 17 42 42 42 16 0 32 -7 36 -15 32 -69 37 -75 64 -78 45 -5
69 24 63 77 -12 111 -135 175 -236 123z"/>
<path d="M3480 3763 c-96 -50 -120 -203 -31 -203 32 0 51 19 66 64 17 52 85
45 85 -9 0 -28 30 -55 62 -55 83 0 73 128 -15 194 -37 28 -122 32 -167 9z"/>
<path d="M2940 3540 c-41 -41 -9 -100 72 -134 75 -32 195 -7 233 47 22 32 19
73 -7 91 -31 22 -52 20 -86 -9 -17 -14 -43 -25 -59 -25 -16 0 -44 11 -63 25
-41 30 -64 31 -90 5z"/>
<path d="M1256 2934 c-22 -22 -29 -56 -24 -120 5 -62 23 -86 63 -86 40 0 58
24 63 86 7 90 -14 136 -63 136 -13 0 -31 -7 -39 -16z"/>
<path d="M1505 4614 c-65 -16 -93 -31 -133 -67 -69 -64 -87 -107 -87 -207 0
-75 3 -91 27 -131 54 -92 135 -139 238 -138 76 1 112 12 173 55 53 38 94 115
104 191 12 105 -55 226 -150 272 -43 21 -135 34 -172 25z m111 -133 c107 -49
123 -174 33 -255 -34 -32 -45 -36 -93 -36 -146 0 -211 168 -103 268 46 43 102
51 163 23z"/>
<path d="M745 4107 c-285 -94 -336 -484 -84 -647 79 -51 169 -68 260 -51 83
17 131 42 188 99 139 139 143 351 10 497 -72 78 -139 108 -248 112 -52 2 -102
-2 -126 -10z m186 -119 c93 -27 161 -124 161 -228 0 -162 -160 -279 -311 -225
-85 30 -149 107 -165 198 -12 63 17 141 72 196 67 66 151 87 243 59z"/>
</g>
</svg>
